Coordinates
version=1
nRows=19
nColumns=24
inDegrees=yes

Units are S.I. units (second, meters, Newtons, ...)
Angles are in degrees.

endheader
time	pelvis_tilt	pelvis_list	pelvis_rotation	pelvis_tx	pelvis_ty	pelvis_tz	hip_flexion_r	hip_adduction_r	hip_rotation_r	knee_angle_r	ankle_angle_r	subtalar_angle_r	mtp_angle_r	hip_flexion_l	hip_adduction_l	hip_rotation_l	knee_angle_l	ankle_angle_l	subtalar_angle_l	mtp_angle_l	lumbar_extension	lumbar_bending	lumbar_rotation
      1.44000000	     -5.77302272	     -0.10546650	     10.21409966	      0.16396977	      0.99317294	      0.03789525	     11.38161093	     -2.11425965	    -16.42604457	    -10.69576507	      2.62602403	      0.00000000	      0.00000000	     16.02744794	     -9.74110931	     -4.35993339	    -55.80462448	     -2.18177282	      0.00000000	      0.00000000	     -1.65608429	      0.81970741	      6.81835905
      1.45000000	     -5.76586405	      0.02001225	     10.13744309	      0.16320725	      0.99366487	      0.03958278	     10.73142946	     -1.99850268	    -16.46549082	    -10.27298378	      2.79222615	      0.00000000	      0.00000000	     16.76957319	     -9.66415580	     -4.70395065	    -56.08536635	     -1.28221385	      0.00000000	      0.00000000	     -1.68223187	      0.65433943	      7.19938952
      1.46000000	     -5.77115623	      0.13699116	     10.07250544	      0.16236105	      0.99408872	      0.04118089	     10.10132900	     -1.88741669	    -16.51810349	     -9.86033214	      2.93731334	      0.00000000	      0.00000000	     17.51115509	     -9.55097147	     -5.00379684	    -56.18022435	     -0.39742242	      0.00000000	      0.00000000	     -1.70087732	      0.49733708	      7.56767568
      1.47000000	     -5.80872478	      0.26864212	     10.03432282	      0.16141768	      0.99441741	      0.04269991	      9.50432697	     -1.80499523	    -16.60789607	     -9.44386737	      3.11622698	      0.00000000	      0.00000000	     18.27515362	     -9.38418131	     -5.27653544	    -56.08193315	      0.30513366	      0.00000000	      0.00000000	     -1.70342173	      0.31637158	      7.88969731
      1.48000000	     -5.86050607	      0.38333618	     10.01111431	      0.16041258	      0.99466985	      0.04406855	      8.93380257	     -1.72252028	    -16.67943765	     -9.04405377	      3.26822643	      0.00000000	      0.00000000	     19.02300970	     -9.18228023	     -5.50917683	    -55.77698452	      1.12155895	      0.00000000	      0.00000000	     -1.69181895	      0.15549165	      8.18792015
      1.49000000	     -5.92056225	      0.48146398	      9.96844713	      0.15933180	      0.99482145	      0.04538031	      8.39911423	     -1.63017441	    -16.78568875	     -8.67330078	      3.45076900	      0.00000000	      0.00000000	     19.76959465	     -8.95288078	     -5.67880842	    -55.31396354	      1.74120648	      0.00000000	      0.00000000	     -1.68190971	      0.01573660	      8.52937152
      1.50000000	     -5.99532570	      0.60561441	      9.98137052	      0.15820879	      0.99488930	      0.04654879	      7.88130050	     -1.58739552	    -16.82024659	     -8.32997297	      3.56951522	      0.00000000	      0.00000000	     20.49056982	     -8.67255581	     -5.88167073	    -54.65770746	      2.62362726	      0.00000000	      0.00000000	     -1.67603456	     -0.16269687	      8.76000524
      1.51000000	     -6.06825510	      0.64468082	      9.97210083	      0.15707476	      0.99489985	      0.04767347	      7.41468280	     -1.46055397	    -16.89098018	     -8.06325329	      3.76317913	      0.00000000	      0.00000000	     21.18126711	     -8.44930309	     -6.00445422	    -53.75907233	      3.07318422	      0.00000000	      0.00000000	     -1.65740611	     -0.24043864	      9.04047201
      1.52000000	     -6.17365619	      0.81776509	      9.98104676	      0.15593203	      0.99478053	      0.04864254	      6.92482475	     -1.48132177	    -16.89107876	     -7.70695922	      3.94087044	      0.00000000	      0.00000000	     21.85857772	     -8.06672545	     -6.23199724	    -52.77693081	      3.85699324	      0.00000000	      0.00000000	     -1.63106674	     -0.48116160	      9.27931280
      1.53000000	     -6.24967578	      0.81032679	      9.98460714	      0.15473282	      0.99461780	      0.04959326	      6.50958428	     -1.32738335	    -16.91841021	     -7.53010535	      4.13776593	      0.00000000	      0.00000000	     22.49831842	     -7.85523177	     -6.33042021	    -51.53400005	      4.17895490	      0.00000000	      0.00000000	     -1.62591361	     -0.51003204	      9.52400720
      1.54000000	     -6.37700419	      1.08099224	      9.94177187	      0.15361196	      0.99438662	      0.05041717	      6.05108917	     -1.47104616	    -16.83410967	     -7.21114579	      4.38948236	      0.00000000	      0.00000000	     23.03283373	     -7.35323705	     -6.63429895	    -50.09369235	      4.74176404	      0.00000000	      0.00000000	     -1.61001640	     -0.86245538	      9.79556074
      1.55000000	     -6.47571948	      1.17342711	      9.92372503	      0.15245495	      0.99409315	      0.05120556	      5.63154824	     -1.42851711	    -16.77840090	     -6.99080230	      4.66624410	      0.00000000	      0.00000000	     23.56331753	     -7.03487524	     -6.85704026	    -48.50351043	      4.93738146	      0.00000000	      0.00000000	     -1.59638685	     -1.02025090	     10.05401907
      1.56000000	     -6.55937614	      1.11676845	      9.93018130	      0.15121752	      0.99369568	      0.05188721	      5.27620775	     -1.25021386	    -16.75327280	     -6.89644535	      4.88489459	      0.00000000	      0.00000000	     24.10383515	     -6.85249887	     -6.97736723	    -46.82001460	      5.04125896	      0.00000000	      0.00000000	     -1.59253857	     -1.00133374	     10.27239265
      1.57000000	     -6.67847021	      1.50718386	      9.80682483	      0.15013950	      0.99341133	      0.05254028	      4.86718883	     -1.54908200	    -16.51682316	     -6.75719227	      5.23671343	      0.00000000	      0.00000000	     24.37621346	     -6.24994461	     -7.47645211	    -44.72095655	      4.86064442	      0.00000000	      0.00000000	     -1.61793697	     -1.49175558	     10.62896553
      1.58000000	     -6.75870793	      1.34719082	      9.84480077	      0.14889387	      0.99281459	      0.05308575	      4.54363399	     -1.27119965	    -16.51775412	     -6.71190184	      5.48391845	      0.00000000	      0.00000000	     24.87947813	     -6.17453558	     -7.61745390	    -42.82094254	      4.86305531	      0.00000000	      0.00000000	     -1.60659019	     -1.36399512	     10.80657135
      1.59000000	     -6.80808344	      1.76650752	      9.64658454	      0.14779790	      0.99252943	      0.05369771	      4.11592235	     -1.60463289	    -16.25072027	     -6.69124498	      5.96784819	      0.00000000	      0.00000000	     24.93981131	     -5.59782524	     -8.27581400	    -40.38519360	      4.27460203	      0.00000000	      0.00000000	     -1.73839400	     -1.88103793	     11.22016209
      1.60000000	     -6.92425314	      1.57498522	      9.68324751	      0.14665026	      0.99174231	      0.05409352	      3.82091479	     -1.30337138	    -16.25660246	     -6.62961753	      6.22148346	      0.00000000	      0.00000000	     25.39789255	     -5.55592779	     -8.51496118	    -38.28081516	      4.13065914	      0.00000000	      0.00000000	     -1.66838927	     -1.72602701	     11.37423223
      1.61000000	     -7.07976960	      1.83688138	      9.51556570	      0.14548888	      0.99113066	      0.05458925	      3.54715597	     -1.50441976	    -16.02213671	     -6.62316793	      6.57319532	      0.00000000	      0.00000000	     25.57524780	     -5.12875156	     -9.21564753	    -35.71050135	      3.17209078	      0.00000000	      0.00000000	     -1.66590104	     -2.09970268	     11.72849067
      1.62000000	     -7.14241683	      1.94919264	      9.40162747	      0.14438037	      0.99046239	      0.05495243	      3.23590614	     -1.55121595	    -15.88561476	     -6.73828559	      6.99682597	      0.00000000	      0.00000000	     25.68353558	     -4.83931120	     -9.85419736	    -33.14658409	      2.61063794	      0.00000000	      0.00000000	     -1.73718271	     -2.28075910	     12.01615666
